<?xml version="1.0" encoding="UTF-8"?>
<svg version="1.1" xmlns="http://www.w3.org/2000/svg" width="40" height="40">
<path d="M0 0 C2.22855574 -0.0814222 4.45797655 -0.13938079 6.6875 -0.1875 C8.54955078 -0.23970703 8.54955078 -0.23970703 10.44921875 -0.29296875 C14.23971395 0.01977838 15.92725164 0.86360578 19 3 C20.485 3.495 20.485 3.495 22 4 C21.85892253 5.45880109 21.71197585 6.91703551 21.5625 8.375 C21.48128906 9.18710938 21.40007813 9.99921875 21.31640625 10.8359375 C21 13 21 13 20 15 C20.78375 15.12375 21.5675 15.2475 22.375 15.375 C25 16 25 16 27 18 C28.6491377 21.29827541 28.62470194 24.45001112 28 28 C26.49147023 31.48578128 24.75361487 34.36584782 22 37 C18.125 37.5625 18.125 37.5625 15 37 C15 37.66 15 38.32 15 39 C8.81795511 36.82793017 8.81795511 36.82793017 7 34 C6.9375 31.125 6.9375 31.125 8 28 C10 26.33333333 12 24.66666667 14 23 C14.96298724 19.82437198 14.96298724 19.82437198 15 17 C15.99 17 16.98 17 18 17 C18 16.34 18 15.68 18 15 C9.8480633 13.80613783 9.8480633 13.80613783 2 16 C1.67 16.33 1.34 16.66 1 17 C1.08937803 18.52519276 1.24537146 20.04681929 1.4375 21.5625 C1.53933594 22.38878906 1.64117187 23.21507813 1.74609375 24.06640625 C1.82988281 24.70449219 1.91367188 25.34257812 2 26 C3.32 25.67 4.64 25.34 6 25 C7.31157516 27.62315032 6.89649988 29.23033436 6.5625 32.125 C6.46066406 33.03507812 6.35882812 33.94515625 6.25390625 34.8828125 C6.17011719 35.58148438 6.08632813 36.28015625 6 37 C1.85195788 37.6040838 -1.87285996 37.82962866 -6 37 C-10.2210389 33.4283517 -11.78167893 29.07162435 -12.3515625 23.6640625 C-12.37235151 20.74667156 -12.26942265 17.90377745 -12 15 C-8.7 14.67 -5.4 14.34 -2 14 C-2.99 12.68 -3.98 11.36 -5 10 C-4.87585955 6.15164617 -2.38369548 3.84505589 0 1 C0 0.67 0 0.34 0 0 Z M19 15 C20 17 20 17 20 17 Z " fill="#050805" transform="translate(12,0)"/>
<path d="M0 0 C1.53655975 9.5308233 1.53655975 9.5308233 -1 14 C-1.556875 15.093125 -2.11375 16.18625 -2.6875 17.3125 C-5 20 -5 20 -8.75 20.375 C-10.35875 20.189375 -10.35875 20.189375 -12 20 C-12 20.66 -12 21.32 -12 22 C-18.18204489 19.82793017 -18.18204489 19.82793017 -20 17 C-20.0625 14.125 -20.0625 14.125 -19 11 C-17.04072937 9.2856382 -15.04119788 7.61594832 -13 6 C-12.7525 4.9171875 -12.7525 4.9171875 -12.5 3.8125 C-12.335 3.214375 -12.17 2.61625 -12 2 C-7.94298942 0.11301833 -4.43457902 -0.21117043 0 0 Z " fill="#080A07" transform="translate(39,17)"/>
<path d="M0 0 C1.32 0 2.64 0 4 0 C4.7321875 -0.04640625 5.464375 -0.0928125 6.21875 -0.140625 C12.41630901 -0.43776824 12.41630901 -0.43776824 15.5 1.875 C17 4 17 4 18 6 C17.39421747 8.01927511 16.73080266 10.02253397 16 12 C13.75 12.375 13.75 12.375 11 12 C8.75 9.0625 8.75 9.0625 7 6 C6.67 5.67 6.34 5.34 6 5 C4.68 7.31 3.36 9.62 2 12 C0.02 10.68 -1.96 9.36 -4 8 C-3.40339753 4.65902615 -2.36924875 2.45699871 0 0 Z " fill="#B4E4A0" transform="translate(14,2)"/>
<path d="M0 0 C0.66 2.31 1.32 4.62 2 7 C1.34 7 0.68 7 0 7 C-0.33 8.65 -0.66 10.3 -1 12 C-0.401875 11.814375 0.19625 11.62875 0.8125 11.4375 C3 11 3 11 6 12 C6 14.64 6 17.28 6 20 C3.20888579 20.18302388 0.75309912 20.33387484 -2 20 C-3.75 18.4375 -3.75 18.4375 -5 16 C-5.37253906 15.47921875 -5.74507813 14.9584375 -6.12890625 14.421875 C-8.5019674 10.94451807 -9.06019611 9.52456613 -8.5625 5.1875 C-7 2 -7 2 -4.5 0.5625 C-2 0 -2 0 0 0 Z " fill="#B3E29F" transform="translate(10,15)"/>
<path d="M0 0 C0.66 0.33 1.32 0.66 2 1 C3.53668865 1.22467831 5.07968054 1.40796805 6.625 1.5625 C7.44226562 1.64628906 8.25953125 1.73007812 9.1015625 1.81640625 C9.72804688 1.87699219 10.35453125 1.93757813 11 2 C9.83050421 5.32856495 8.92000675 7.9142809 6 10 C3.0625 10.9375 3.0625 10.9375 0 11 C-2.375 9.0625 -2.375 9.0625 -4 7 C-2.79618552 4.50638429 -1.54571278 2.31856917 0 0 Z " fill="#AEDC9A" transform="translate(25,26)"/>
<path d="M0 0 C0 2.64 0 5.28 0 8 C-5.32363636 8.34909091 -5.32363636 8.34909091 -8 8 C-9.98701664 6.07708067 -10.77945819 4.44108362 -12 2 C-10.75579353 1.4654744 -9.50429064 0.94791389 -8.25 0.4375 C-7.55390625 0.14746094 -6.8578125 -0.14257812 -6.140625 -0.44140625 C-3.69987216 -1.07831803 -2.3596345 -0.80248831 0 0 Z " fill="#95D4A2" transform="translate(16,27)"/>
<path d="M0 0 C1.65 0.33 3.3 0.66 5 1 C5.75 3.125 5.75 3.125 6 6 C4.0625 9.3125 4.0625 9.3125 2 12 C0.02 10.68 -1.96 9.36 -4 8 C-3.40072174 4.64404172 -2.15377564 2.62198774 0 0 Z " fill="#94D2A2" transform="translate(14,2)"/>
<path d="M0 0 C0.66 2.31 1.32 4.62 2 7 C1 8 1 8 -2.4375 8.25 C-3.613125 8.1675 -4.78875 8.085 -6 8 C-8 5 -8 5 -8 1 C-4.93251126 -0.86240388 -3.40254489 -1.2151946 0 0 Z " fill="#95D5A4" transform="translate(37,18)"/>
<path d="M0 0 C0.66 0.33 1.32 0.66 2 1 C0.2476366 4.23513244 -1.53472551 7.25664682 -4 10 C-7.875 10.5625 -7.875 10.5625 -11 10 C-11 10.66 -11 11.32 -11 12 C-14.37503669 10.8141763 -16.64722731 9.72426311 -19 7 C-18.67 6.01 -18.34 5.02 -18 4 C-17.13375 4.86625 -16.2675 5.7325 -15.375 6.625 C-12.83778259 8.70956829 -12.42599383 9.03549949 -9 8.75 C-5.0991271 6.47449081 -2.69549064 3.57487057 0 0 Z " fill="#070906" transform="translate(38,27)"/>
<path d="M0 0 C3 1 3 1 4 3 C4.55825243 8.24757282 4.55825243 8.24757282 2.5625 10.9375 C-1.35273463 12.56088997 -4.90674275 11.72594092 -9 11 C-5.36383344 9.0210244 -2.11574371 8.4748935 2 8 C1.34 5.36 0.68 2.72 0 0 Z " fill="#243023" transform="translate(36,17)"/>
<path d="M0 0 C0.66 0 1.32 0 2 0 C3.32 2.64 4.64 5.28 6 8 C2.62537285 7.45276317 0.91765 6.9451 -2 5 C-1.34 3.35 -0.68 1.7 0 0 Z " fill="#0C0F0B" transform="translate(19,6)"/>
<path d="M0 0 C0.44730469 0.3609375 0.89460938 0.721875 1.35546875 1.09375 C5.23864387 4.13442422 5.23864387 4.13442422 9.9375 5.3125 C10.618125 5.209375 11.29875 5.10625 12 5 C10.68 5.33 9.36 5.66 8 6 C8 6.66 8 7.32 8 8 C4.67689517 6.83242263 2.16638868 5.85051143 0 3 C0 2.01 0 1.02 0 0 Z " fill="#000100" transform="translate(19,31)"/>
<path d="M0 0 C0.33 0.66 0.66 1.32 1 2 C3.52733235 2.65555119 3.52733235 2.65555119 6 3 C3.03312999 4.64826111 0.34373475 5.44271087 -3 6 C-3.33 5.34 -3.66 4.68 -4 4 C-3.01 4 -2.02 4 -1 4 C-0.67 2.68 -0.34 1.36 0 0 Z M0 2 C1 4 1 4 1 4 Z " fill="#020202" transform="translate(31,13)"/>
<path d="M0 0 C0.66 0 1.32 0 2 0 C2 1.65 2 3.3 2 5 C1.01 5.33 0.02 5.66 -1 6 C-0.67 4.02 -0.34 2.04 0 0 Z M-5 5 C-3.02 5.495 -3.02 5.495 -1 6 C-1 6.33 -1 6.66 -1 7 C-2.65 7 -4.3 7 -6 7 C-5.67 6.34 -5.34 5.68 -5 5 Z " fill="#0D100B" transform="translate(31,8)"/>
<path d="M0 0 C0.66 0.33 1.32 0.66 2 1 C0.68 3.31 -0.64 5.62 -2 8 C-2.99 7.01 -3.98 6.02 -5 5 C-3.35 3.35 -1.7 1.7 0 0 Z " fill="#0C120E" transform="translate(12,2)"/>
<path d="" fill="#000000" transform="translate(0,0)"/>
<path d="" fill="#000000" transform="translate(0,0)"/>
<path d="" fill="#000000" transform="translate(0,0)"/>
<path d="" fill="#000000" transform="translate(0,0)"/>
<path d="" fill="#000000" transform="translate(0,0)"/>
</svg>
